<?xml version="1.0" encoding="utf-8"?>
<!-- Generator: Adobe Illustrator 24.1.2, SVG Export Plug-In . SVG Version: 6.00 Build 0)  -->
<svg version="1.1" id="Layer_1" xmlns="http://www.w3.org/2000/svg" xmlns:xlink="http://www.w3.org/1999/xlink" x="0px" y="0px"
	 viewBox="0 0 916 391" style="enable-background:new 0 0 916 391;" xml:space="preserve">
<style type="text/css">
	.st0{fill:#FFFFFF;}
</style>
<g>
	<g id="XMLID_104_">
		<path id="XMLID_106_" class="st0" d="M14.3,280.8h24.3v-270H14.3V280.8z"/>
	</g>
	<g id="XMLID_97_">
		<path id="XMLID_99_" class="st0" d="M144.8,382H169v-270h-24.2V382z"/>
	</g>
	<g id="XMLID_85_">
		<path id="XMLID_91_" class="st0" d="M476.6,107.3c-50,0-84.9,36.6-84.9,89.1c0,51.6,35.7,89.1,84.9,89.1c36.8,0,67.2-20.3,80-53.1
			l-24.6-5.9c-8.8,24.6-28.8,38.6-55.4,38.6c-32.3,0-53.9-21.2-57.9-56.7l-0.4-3.5h142.9c0.2-2.8,0.3-5.7,0.3-8.6
			C561.5,143.8,526.6,107.3,476.6,107.3L476.6,107.3z M534.8,186.2H418.4l0.4-3.5c4.4-34.5,26-55.1,57.8-55.1
			c31.7,0,53.3,20.6,57.8,55.1L534.8,186.2z"/>
	</g>
	<g id="XMLID_75_">
		<g id="XMLID_78_">
			<path id="XMLID_79_" class="st0" d="M79.2,280.8h24.2V112H79.2V280.8z"/>
		</g>
	</g>
	<g id="XMLID_52_">
		<g id="XMLID_55_">
			<path id="XMLID_60_" class="st0" d="M65.5,65l14,13.9l50.3-50.1l-6-21.7C123.8,7.1,65.5,65,65.5,65z"/>
		</g>
	</g>
	<g id="XMLID_32_">
		<g id="XMLID_34_">
			<path id="XMLID_35_" class="st0" d="M123.8,7.1l-6.1,21.7L168,78.9L182,65L123.8,7.1z"/>
		</g>
	</g>
	<path id="XMLID_26_" class="st0" d="M338.2,10.8v129.2c-16.2-23.7-38.1-32.7-59-32.7c-49.1,0-83.3,36.6-83.3,89.1
		s34.3,89.1,83.3,89.1c20.5,0,42.7-9.3,59-33.6v29h24.2V10.8H338.2z M280.8,265c-36.2,0-58.6-26.3-58.6-68.8s22.5-68.8,58.6-68.8
		c35.7,0,57.1,25.7,57.1,68.8S316.5,265,280.8,265z"/>
	<g id="XMLID_14_">
		<g id="XMLID_16_">
			<g id="XMLID_17_">
				<g id="XMLID_18_">
					<path id="XMLID_19_" class="st0" d="M771.6,238.4c8.6,28.7,36.1,47.1,70.9,47.1c45.6,0,65.9-25.2,65.9-50.1
						c0-28.2-17.8-42.6-61.5-49.9c-31.7-5.3-46.7-11.3-46.7-31.6c0-19.4,21.7-26.3,42-26.3c21.8,0,38.3,11,43.8,29l21.6-6.9
						c-7.3-25-33-42.2-63.5-42.2c-55,0-67.4,35.3-67.4,47.7c0,36.5,30.7,45,62.2,50.5c25,4.4,45.7,9.8,45.7,31.8
						c0,17-16.3,27.5-42.6,27.5c-23.5,0-41.9-13.3-48.7-35L771.6,238.4L771.6,238.4z"/>
				</g>
			</g>
		</g>
	</g>
	<g id="XMLID_2_">
		<path id="XMLID_6_" class="st0" d="M716.8,280.8H741v-89.1c0-56.8-22-84.4-67.4-84.4c-21.8,0-45.8,12.2-61.8,35.8l2.8-0.5V112
			h-24.2v168.8h24.2v-84.4c0-43.1,21.5-68.8,57.4-68.8c39.4,0,44.7,32.4,44.7,64.1L716.8,280.8L716.8,280.8z"/>
	</g>
</g>
</svg>
