<?xml version="1.0" encoding="utf-8"?>
<!-- Generator: Adobe Illustrator 24.1.2, SVG Export Plug-In . SVG Version: 6.00 Build 0)  -->
<svg version="1.1" id="Layer_1" xmlns="http://www.w3.org/2000/svg" xmlns:xlink="http://www.w3.org/1999/xlink" x="0px" y="0px"
	 viewBox="0 0 897.8 496.9" style="enable-background:new 0 0 897.8 496.9;" xml:space="preserve">
<style type="text/css">
	.st0{fill:#FFFFFF;}
</style>
<path class="st0" d="M20,458.9l0.3,0.3l15.3,36.5l-0.3,0.3h-5l-0.3-0.3l-3.6-9.1H9.2l-3.6,9.1L5.2,496H0.3L0,495.6l15.2-36.5
	l0.3-0.3H20V458.9z M11.4,481.6h12.8l-6.4-15.9C17.8,465.7,11.4,481.6,11.4,481.6z M52.6,458.9c7.7,0,13,4.1,13,11.1
	c0,5.2-2.9,8.6-7.4,10.2l11.3,15.4l-0.3,0.3h-5.8l-0.3-0.3l-10.7-14.5h-5.3v14.5l-0.3,0.3h-4.3l-0.3-0.3v-36.5l0.3-0.3L52.6,458.9
	L52.6,458.9z M47.1,476.2h5.4c4.4,0,7.5-2.1,7.5-6.2s-3-6.2-7.4-6.2h-5.5V476.2L47.1,476.2z M109.8,496.2h-0.3l-4.4-3.7
	c-3.4,2.8-7.7,4.4-12.4,4.4c-10.9,0-19.8-8.8-19.8-19.5s8.9-19.5,19.8-19.5s19.8,8.8,19.8,19.5c0,4.3-1.5,8.4-4,11.6l4.2,3.5v0.3
	L109.8,496.2L109.8,496.2z M100,481.9l4.2,3.5c1.7-2.2,2.6-5,2.6-8c0-7.9-6.3-14.3-14.1-14.3s-14.2,6.5-14.2,14.3
	s6.3,14.3,14.2,14.3c3.1,0,5.9-1,8.3-2.7l-4.1-3.5v-0.3l2.9-3.4h0.2V481.9z M126.1,458.9l0.3,0.3v18.9c0,9.4,4.8,13.6,11.6,13.6
	s11.6-4.2,11.6-13.6v-18.9l0.3-0.3h4.3l0.3,0.3v19.9c0,11.8-7,17.8-16.6,17.8c-9.5,0-16.5-6-16.5-17.8v-19.9l0.3-0.3H126.1
	L126.1,458.9z M170.2,458.9l0.3,0.3v36.5l-0.3,0.3h-4.3l-0.3-0.3v-36.5l0.3-0.3H170.2z M209.6,458.9l0.3,0.3v4.3l-0.3,0.3h-13.2
	v31.9l-0.3,0.3h-4.3l-0.3-0.3v-31.9h-13.2l-0.3-0.3v-4.3l0.3-0.3H209.6z M239.9,458.9l0.3,0.3v4.3l-0.3,0.3h-17.7V474h12.5l0.3,0.3
	v4.3l-0.3,0.3h-12.5V491h19.6l0.3,0.3v4.3l-0.3,0.3h-24.2l-0.3-0.3v-36.5l0.3-0.3h22.3L239.9,458.9z M276.8,467.6
	c-4.1-3.1-7.2-4.5-11.8-4.5c-7.7,0-14.2,6.5-14.2,14.3s6.5,14.3,14.2,14.3c4.7,0,7.7-1.4,11.8-4.5l0.3,0.3v5.6
	c-3.5,2.4-6.7,3.7-12.2,3.7c-10.9,0-19.8-8.6-19.8-19.5s9-19.5,19.8-19.5c5.4,0,8.6,1.3,12.2,3.7v5.6L276.8,467.6z M313.5,458.9
	l0.3,0.3v4.3l-0.3,0.3h-13.2v31.9L300,496h-4.3l-0.3-0.3v-31.9h-13.2l-0.3-0.3v-4.3l0.3-0.3H313.5z M325.9,458.9l0.3,0.3v18.9
	c0,9.4,4.8,13.6,11.6,13.6s11.6-4.2,11.6-13.6v-18.9l0.3-0.3h4.3l0.3,0.3v19.9c0,11.8-7,17.8-16.6,17.8c-9.5,0-16.5-6-16.5-17.8
	v-19.9l0.3-0.3H325.9L325.9,458.9z M375.8,458.9c7.7,0,13,4.1,13,11.1c0,5.2-2.9,8.6-7.4,10.2l11.3,15.4l-0.3,0.3h-5.8l-0.3-0.3
	l-10.7-14.5h-5.3v14.5L370,496h-4.3l-0.3-0.3v-36.5l0.3-0.3L375.8,458.9L375.8,458.9z M370.3,476.2h5.4c4.4,0,7.5-2.1,7.5-6.2
	s-3-6.2-7.4-6.2h-5.5V476.2L370.3,476.2z M414.8,458.9l0.3,0.3l15.3,36.5l-0.3,0.3h-5l-0.3-0.3l-3.6-9.1H404l-3.6,9.1L400,496h-4.9
	l-0.3-0.3l15.2-36.5l0.3-0.3H414.8L414.8,458.9z M406.2,481.6H419l-6.4-15.9L406.2,481.6L406.2,481.6z M467.2,460.1l0.3,0.3v9.7h9.7
	l0.3,0.3v4.3l-0.3,0.3h-9.7v9.7l-0.3,0.3h-4.3l-0.3-0.3V475h-9.7l-0.3-0.3v-4.3l0.3-0.3h9.7v-9.7l0.3-0.3L467.2,460.1L467.2,460.1z
	 M508.8,458.9l0.3,0.3v36.5l-0.3,0.3h-4.3l-0.3-0.3v-36.5l0.3-0.3H508.8z M525.2,458.9l0.6,0.3l22.4,28.9v-28.9l0.3-0.3h4.3l0.3,0.3
	v36.5l-0.3,0.3H548l-0.6-0.3l-22.4-29v28.9l-0.3,0.3h-4.3l-0.3-0.3v-36.5l0.3-0.3h4.8V458.9z M592.2,458.9l0.3,0.3v4.3l-0.3,0.3H579
	v31.9l-0.3,0.3h-4.3l-0.3-0.3v-31.9h-13.2l-0.3-0.3v-4.3l0.3-0.3H592.2z M622.5,458.9l0.3,0.3v4.3l-0.3,0.3h-17.7V474h12.5l0.3,0.3
	v4.3l-0.3,0.3h-12.5V491h19.6l0.3,0.3v4.3l-0.3,0.3h-24.2l-0.3-0.3v-36.5l0.3-0.3h22.3L622.5,458.9z M643.3,458.9
	c7.7,0,13,4.1,13,11.1c0,5.2-2.9,8.6-7.4,10.2l11.3,15.4l-0.3,0.3h-5.8l-0.3-0.3l-10.7-14.5h-5.3v14.5l-0.3,0.3h-4.3l-0.3-0.3v-36.5
	l0.3-0.3L643.3,458.9L643.3,458.9z M637.8,476.2h5.4c4.4,0,7.5-2.1,7.5-6.2s-3-6.2-7.4-6.2h-5.5V476.2L637.8,476.2z M671.3,458.9
	l0.3,0.3v36.5l-0.3,0.3H667l-0.3-0.3v-36.5l0.3-0.3H671.3z M720.4,477.4c0,10.7-8.9,19.5-19.8,19.5s-19.8-8.8-19.8-19.5
	s8.9-19.5,19.8-19.5S720.4,466.7,720.4,477.4z M686.4,477.4c0,7.9,6.3,14.3,14.2,14.3s14.1-6.5,14.1-14.3s-6.3-14.3-14.1-14.3
	S686.4,469.6,686.4,477.4z M739.8,458.9c7.7,0,13,4.1,13,11.1c0,5.2-2.9,8.6-7.4,10.2l11.3,15.4l-0.3,0.3h-5.8l-0.3-0.3l-10.7-14.5
	h-5.3v14.5L734,496h-4.3l-0.3-0.3v-36.5l0.3-0.3L739.8,458.9L739.8,458.9z M734.3,476.2h5.4c4.4,0,7.5-2.1,7.5-6.2s-3-6.2-7.4-6.2
	h-5.5V476.2L734.3,476.2z M767.9,458.9l0.3,0.3v36.5l-0.3,0.3h-4.3l-0.3-0.3v-36.5l0.3-0.3H767.9z M796.5,467.3
	c-1.9-2.7-3.8-4.2-6.9-4.2c-3.1,0-5.2,1.8-5.2,4.9c0,6.2,17.1,5.9,17.1,17.8c0,6.4-5,11.1-12.5,11.1c-5.1,0-10.4-2.9-12.9-8.6
	l3.6-2.7h0.6c2.4,4.6,5.7,6.1,8.7,6.1c4.3,0,6.9-2.4,6.9-5.9c0-7.4-17.1-7.4-17.1-17.8c0-6,4.5-10.1,10.9-10.1
	c5.1,0,8.7,2.9,10.9,6.7l-3.4,2.7H796.5L796.5,467.3z M814.3,458.9l0.6,0.3l13.6,17.1l13.6-17.1l0.6-0.3h4.1l0.3,0.3v36.5l-0.3,0.3
	h-4.3l-0.3-0.3v-29l-13.4,16.8h-0.6l-13.4-16.8v29l-0.3,0.3h-4.3l-0.3-0.3v-36.5l0.3-0.3H814.3L814.3,458.9z M895.9,477.4
	c0,10.7-8.9,19.5-19.8,19.5s-19.8-8.8-19.8-19.5s8.9-19.5,19.8-19.5S895.9,466.7,895.9,477.4z M861.9,477.4
	c0,7.9,6.3,14.3,14.2,14.3s14.1-6.5,14.1-14.3s-6.3-14.3-14.1-14.3S861.9,469.6,861.9,477.4z"/>
<g>
	<g id="XMLID_104_">
		<path id="XMLID_106_" class="st0" d="M3.7,273.7H28V3.7H3.7V273.7z"/>
	</g>
	<g id="XMLID_97_">
		<path id="XMLID_99_" class="st0" d="M134.2,374.9h24.2v-270h-24.2V374.9z"/>
	</g>
	<g id="XMLID_85_">
		<path id="XMLID_91_" class="st0" d="M466,100.2c-50,0-84.9,36.6-84.9,89.1c0,51.6,35.7,89.1,84.9,89.1c36.8,0,67.2-20.3,80-53.1
			l-24.6-5.9C512.6,244,492.6,258,466,258c-32.3,0-53.9-21.2-57.9-56.7l-0.4-3.5h142.9c0.2-2.8,0.3-5.7,0.3-8.6
			C550.9,136.8,516,100.2,466,100.2L466,100.2z M524.2,179.1H407.8l0.4-3.5c4.4-34.5,26-55.1,57.8-55.1c31.7,0,53.3,20.6,57.8,55.1
			L524.2,179.1z"/>
	</g>
	<g id="XMLID_75_">
		<g id="XMLID_78_">
			<path id="XMLID_79_" class="st0" d="M68.6,273.7h24.2V104.9H68.6V273.7z"/>
		</g>
	</g>
	<g id="XMLID_52_">
		<g id="XMLID_55_">
			<path id="XMLID_60_" class="st0" d="M54.9,57.9l14,13.9l50.3-50.1l-6-21.7C113.2,0,54.9,57.9,54.9,57.9z"/>
		</g>
	</g>
	<g id="XMLID_32_">
		<g id="XMLID_34_">
			<path id="XMLID_35_" class="st0" d="M113.2,0l-6.1,21.7l50.3,50.1l14-13.9L113.2,0z"/>
		</g>
	</g>
	<path id="XMLID_26_" class="st0" d="M327.6,3.7v129.2c-16.2-23.7-38.1-32.7-59-32.7c-49.1,0-83.3,36.6-83.3,89.1
		s34.3,89.1,83.3,89.1c20.5,0,42.7-9.3,59-33.6v29h24.2V3.7H327.6z M270.2,258c-36.2,0-58.6-26.3-58.6-68.8s22.5-68.8,58.6-68.8
		c35.7,0,57.1,25.7,57.1,68.8S305.9,258,270.2,258z"/>
	<g id="XMLID_14_">
		<g id="XMLID_16_">
			<g id="XMLID_17_">
				<g id="XMLID_18_">
					<path id="XMLID_19_" class="st0" d="M761,231.3c8.6,28.7,36.1,47.1,70.9,47.1c45.6,0,65.9-25.2,65.9-50.1
						c0-28.2-17.8-42.6-61.5-49.9c-31.7-5.3-46.7-11.3-46.7-31.6c0-19.4,21.7-26.3,42-26.3c21.8,0,38.3,11,43.8,29l21.6-6.9
						c-7.3-25-33-42.2-63.5-42.2c-55,0-67.4,35.3-67.4,47.7c0,36.5,30.7,45,62.2,50.5c25,4.4,45.7,9.8,45.7,31.8
						c0,17-16.3,27.5-42.6,27.5c-23.5,0-41.9-13.3-48.7-35L761,231.3L761,231.3z"/>
				</g>
			</g>
		</g>
	</g>
	<g id="XMLID_2_">
		<path id="XMLID_6_" class="st0" d="M706.2,273.7h24.2v-89.1c0-56.8-22-84.4-67.4-84.4c-21.8,0-45.8,12.2-61.8,35.8l2.8-0.5v-30.6
			h-24.2v168.8H604v-84.4c0-43.1,21.5-68.8,57.4-68.8c39.4,0,44.7,32.4,44.7,64.1L706.2,273.7L706.2,273.7z"/>
	</g>
</g>
</svg>
